<svg width="24" height="24" viewBox="0 0 24 24" fill="none" xmlns="http://www.w3.org/2000/svg">
  <g clipPath="url(#clip0_1885_1004)">
    <path
      fillRule="evenodd"
      clipRule="evenodd"
      d="M16 4.05025C14.9525 4.05025 13.9478 4.46638 13.2071 5.2071L5.20712 13.2071C4.4664 13.9478 4.05026 14.9525 4.05026 16C4.05026 17.0475 4.4664 18.0522 5.20712 18.7929C5.94784 19.5336 6.95247 19.9497 8.00001 19.9497C9.04755 19.9497 10.0522 19.5336 10.7929 18.7929L18.7929 10.7929C19.5336 10.0522 19.9498 9.04753 19.9498 7.99999C19.9498 6.95246 19.5336 5.94782 18.7929 5.2071C18.0522 4.46638 17.0475 4.05025 16 4.05025ZM11.7929 3.79289C12.9087 2.67709 14.422 2.05025 16 2.05025C17.578 2.05025 19.0913 2.67709 20.2071 3.79289C21.3229 4.90868 21.9498 6.42202 21.9498 7.99999C21.9498 9.57797 21.3229 11.0913 20.2071 12.2071L12.2071 20.2071C11.0913 21.3229 9.57798 21.9497 8.00001 21.9497C6.42204 21.9497 4.9087 21.3229 3.7929 20.2071C2.67711 19.0913 2.05026 17.578 2.05026 16C2.05026 14.422 2.67711 12.9087 3.7929 11.7929L11.7929 3.79289Z"
      fill="#506FA4"
    />
    <path
      fillRule="evenodd"
      clipRule="evenodd"
      d="M7.79289 7.79289C8.18342 7.40237 8.81658 7.40237 9.20711 7.79289L16.2071 14.7929C16.5976 15.1834 16.5976 15.8166 16.2071 16.2071C15.8166 16.5976 15.1834 16.5976 14.7929 16.2071L7.79289 9.20711C7.40237 8.81658 7.40237 8.18342 7.79289 7.79289Z"
      fill="#506FA4"
    />
  </g>
  <defs>
    <clipPath id="clip0_1885_1004">
      <rect width="24" height="24" fill="white" />
    </clipPath>
  </defs>
</svg>
