<svg width="24" height="24" viewBox="0 0 24 24" fill="none" xmlns="http://www.w3.org/2000/svg">
  <g clipPath="url(#clip0_1885_1023)">
    <path
      fillRule="evenodd"
      clipRule="evenodd"
      d="M10.2929 4.29289C10.4804 4.10536 10.7348 4 11 4H13C13.2652 4 13.5196 4.10536 13.7071 4.29289C13.8946 4.48043 14 4.73478 14 5V7C14 7.26522 13.8946 7.51957 13.7071 7.70711C13.5196 7.89464 13.2652 8 13 8H12H11C10.7348 8 10.4804 7.89464 10.2929 7.70711C10.1054 7.51957 10 7.26522 10 7V5C10 4.73478 10.1054 4.48043 10.2929 4.29289ZM13 10C13.7957 10 14.5587 9.68393 15.1213 9.12132C15.6839 8.55871 16 7.79565 16 7V5C16 4.20435 15.6839 3.44129 15.1213 2.87868C14.5587 2.31607 13.7956 2 13 2H11C10.2044 2 9.44129 2.31607 8.87868 2.87868C8.31607 3.44129 8 4.20435 8 5V7C8 7.79565 8.31607 8.55871 8.87868 9.12132C9.44129 9.68393 10.2043 10 11 10V11H8C7.20435 11 6.44129 11.3161 5.87868 11.8787C5.31607 12.4413 5 13.2044 5 14C4.20435 14 3.44129 14.3161 2.87868 14.8787C2.31607 15.4413 2 16.2044 2 17V19C2 19.7957 2.31607 20.5587 2.87868 21.1213C3.44129 21.6839 4.20435 22 5 22H7C7.79565 22 8.55871 21.6839 9.12132 21.1213C9.68393 20.5587 10 19.7957 10 19V17C10 16.2043 9.68393 15.4413 9.12132 14.8787C8.55871 14.3161 7.79565 14 7 14C7 13.7348 7.10536 13.4804 7.29289 13.2929C7.48043 13.1054 7.73478 13 8 13H12H16C16.2652 13 16.5196 13.1054 16.7071 13.2929C16.8946 13.4804 17 13.7348 17 14C16.2043 14 15.4413 14.3161 14.8787 14.8787C14.3161 15.4413 14 16.2043 14 17V19C14 19.7957 14.3161 20.5587 14.8787 21.1213C15.4413 21.6839 16.2043 22 17 22H19C19.7957 22 20.5587 21.6839 21.1213 21.1213C21.6839 20.5587 22 19.7957 22 19V17C22 16.2043 21.6839 15.4413 21.1213 14.8787C20.5587 14.3161 19.7957 14 19 14C19 13.2043 18.6839 12.4413 18.1213 11.8787C17.5587 11.3161 16.7957 11 16 11H13V10ZM5 16C4.73478 16 4.48043 16.1054 4.29289 16.2929C4.10536 16.4804 4 16.7348 4 17V19C4 19.2652 4.10536 19.5196 4.29289 19.7071C4.48043 19.8946 4.73478 20 5 20H7C7.26522 20 7.51957 19.8946 7.70711 19.7071C7.89464 19.5196 8 19.2652 8 19V17C8 16.7348 7.89464 16.4804 7.70711 16.2929C7.51957 16.1054 7.26522 16 7 16H6H5ZM17 16H18H19C19.2652 16 19.5196 16.1054 19.7071 16.2929C19.8946 16.4804 20 16.7348 20 17V19C20 19.2652 19.8946 19.5196 19.7071 19.7071C19.5196 19.8946 19.2652 20 19 20H17C16.7348 20 16.4804 19.8946 16.2929 19.7071C16.1054 19.5196 16 19.2652 16 19V17C16 16.7348 16.1054 16.4804 16.2929 16.2929C16.4804 16.1054 16.7348 16 17 16Z"
      fill="#506FA4"
    />
  </g>
  <defs>
    <clipPath id="clip0_1885_1023">
      <rect width="24" height="24" fill="white" />
    </clipPath>
  </defs>
</svg>
