<svg width="24" height="24" viewBox="0 0 24 24" fill="none" xmlns="http://www.w3.org/2000/svg">
  <g clipPath="url(#clip0_1885_1009)">
    <path
      fillRule="evenodd"
      clipRule="evenodd"
      d="M11.2928 3.29294C11.6834 2.90241 12.3165 2.90241 12.707 3.29294L16.707 7.29294C17.0976 7.68346 17.0976 8.31663 16.707 8.70715C16.3165 9.09768 15.6834 9.09768 15.2928 8.70715L11.9999 5.41426L8.70705 8.70715C8.31652 9.09768 7.68336 9.09768 7.29283 8.70715C6.90231 8.31663 6.90231 7.68346 7.29283 7.29294L11.2928 3.29294Z"
      fill="#506FA4"
    />
    <path
      fillRule="evenodd"
      clipRule="evenodd"
      d="M12 3.00005C12.5523 3.00005 13 3.44776 13 4.00005V20C13 20.5523 12.5523 21 12 21C11.4477 21 11 20.5523 11 20V4.00005C11 3.44776 11.4477 3.00005 12 3.00005Z"
      fill="#506FA4"
    />
    <path
      fillRule="evenodd"
      clipRule="evenodd"
      d="M12 6.99995C12.5523 6.99995 13 7.44767 13 7.99995C13 10.783 12.4792 13.1448 11.3575 15.0144C10.2239 16.9038 8.522 18.2136 6.31612 18.9487C5.79217 19.1233 5.22587 18.8401 5.05126 18.3161C4.87665 17.7922 5.15985 17.2259 5.68381 17.0512C7.47793 16.4534 8.77603 15.4296 9.64246 13.9855C10.5208 12.5216 11 10.55 11 7.99995C11 7.44767 11.4477 6.99995 12 6.99995Z"
      fill="#506FA4"
    />
  </g>
  <defs>
    <clipPath id="clip0_1885_1009">
      <rect width="24" height="24" fill="white" />
    </clipPath>
  </defs>
</svg>
