<svg width="24" height="24" viewBox="0 0 24 24" fill="none" xmlns="http://www.w3.org/2000/svg">
  <g clipPath="url(#clip0_1885_998)">
    <path
      fillRule="evenodd"
      clipRule="evenodd"
      d="M5 3C5 2.44772 5.44772 2 6 2H10.5C11.9587 2 13.3576 2.57946 14.3891 3.61091C15.4205 4.64236 16 6.04131 16 7.5C16 8.95869 15.4205 10.3576 14.3891 11.3891C13.3576 12.4205 11.9587 13 10.5 13H7V19C7 19.5523 6.55228 20 6 20C5.44772 20 5 19.5523 5 19V3ZM7 11H10.5C11.4283 11 12.3185 10.6313 12.9749 9.97487C13.6313 9.3185 14 8.42826 14 7.5C14 6.57174 13.6313 5.6815 12.9749 5.02513C12.3185 4.36875 11.4283 4 10.5 4H7V11Z"
      fill="#506FA4"
    />
    <path
      fillRule="evenodd"
      clipRule="evenodd"
      d="M9.29289 11.2929C9.68342 10.9024 10.3166 10.9024 10.7071 11.2929L19.7071 20.2929C20.0976 20.6834 20.0976 21.3166 19.7071 21.7071C19.3166 22.0976 18.6834 22.0976 18.2929 21.7071L9.29289 12.7071C8.90237 12.3166 8.90237 11.6834 9.29289 11.2929Z"
      fill="#506FA4"
    />
    <path
      fillRule="evenodd"
      clipRule="evenodd"
      d="M19.7071 14.2929C20.0976 14.6834 20.0976 15.3166 19.7071 15.7071L13.7071 21.7071C13.3166 22.0976 12.6834 22.0976 12.2929 21.7071C11.9024 21.3166 11.9024 20.6834 12.2929 20.2929L18.2929 14.2929C18.6834 13.9024 19.3166 13.9024 19.7071 14.2929Z"
      fill="#506FA4"
    />
  </g>
  <defs>
    <clipPath id="clip0_1885_998">
      <rect width="24" height="24" fill="white" />
    </clipPath>
  </defs>
</svg>
