<?xml version="1.0" encoding="UTF-8"?><!DOCTYPE svg PUBLIC "-//W3C//DTD SVG 1.1//EN" "http://www.w3.org/Graphics/SVG/1.1/DTD/svg11.dtd"><svg xmlns="http://www.w3.org/2000/svg" xmlns:xlink="http://www.w3.org/1999/xlink"><defs>
    <clipPath id="clip0_71_4110">
      <rect width="24" height="24" fill="white"/>
    </clipPath>
  
    <clipPath id="clip0_1885_4292">
      <rect width="14.4" height="14.4" fill="white" transform="translate(0.800781 0.799805)"/>
    </clipPath>
  
    <clipPath id="clip0_1885_1004">
      <rect width="24" height="24" fill="white"/>
    </clipPath>
  
    <clipPath id="clip0_1885_1023">
      <rect width="24" height="24" fill="white"/>
    </clipPath>
  
    <clipPath id="clip0_1885_14241">
      <rect width="24" height="24" fill="white"/>
    </clipPath>
  
    <clipPath id="clip0_1885_1009">
      <rect width="24" height="24" fill="white"/>
    </clipPath>
  
    <clipPath id="clip0_1885_998">
      <rect width="24" height="24" fill="white"/>
    </clipPath>
  
    <clipPath id="clip0_71_4110">
      <rect width="24" height="24" fill="white"/>
    </clipPath>
  
    <clipPath id="clip0_1885_4292">
      <rect width="14.4" height="14.4" fill="white" transform="translate(0.800781 0.799805)"/>
    </clipPath>
  
    <clipPath id="clip0_1885_1004">
      <rect width="24" height="24" fill="white"/>
    </clipPath>
  
    <clipPath id="clip0_1885_1023">
      <rect width="24" height="24" fill="white"/>
    </clipPath>
  
    <clipPath id="clip0_1885_14241">
      <rect width="24" height="24" fill="white"/>
    </clipPath>
  
    <clipPath id="clip0_1885_1009">
      <rect width="24" height="24" fill="white"/>
    </clipPath>
  
    <clipPath id="clip0_1885_998">
      <rect width="24" height="24" fill="white"/>
    </clipPath>
  
    <clipPath id="clip0_71_4110">
      <rect width="24" height="24" fill="white"/>
    </clipPath>
  
    <clipPath id="clip0_1885_4292">
      <rect width="14.4" height="14.4" fill="white" transform="translate(0.800781 0.799805)"/>
    </clipPath>
  
    <clipPath id="clip0_1885_1004">
      <rect width="24" height="24" fill="white"/>
    </clipPath>
  
    <clipPath id="clip0_1885_1023">
      <rect width="24" height="24" fill="white"/>
    </clipPath>
  
    <clipPath id="clip0_1885_14241">
      <rect width="24" height="24" fill="white"/>
    </clipPath>
  
    <clipPath id="clip0_1885_1009">
      <rect width="24" height="24" fill="white"/>
    </clipPath>
  
    <clipPath id="clip0_1885_998">
      <rect width="24" height="24" fill="white"/>
    </clipPath>
  
    <clipPath id="clip0_73_12782">
      <rect width="24" height="24" fill="white"/>
    </clipPath>
  
    <clipPath id="clip0_1885_1015">
      <rect width="24" height="24" fill="white"/>
    </clipPath>
  
    <clipPath id="clip0_73_12782">
      <rect width="24" height="24" fill="white"/>
    </clipPath>
  
    <clipPath id="clip0_1885_1015">
      <rect width="24" height="24" fill="white"/>
    </clipPath>
  
    <clipPath id="clip0_73_12782">
      <rect width="24" height="24" fill="white"/>
    </clipPath>
  
    <clipPath id="clip0_1885_1015">
      <rect width="24" height="24" fill="white"/>
    </clipPath>
  </defs><symbol id="account" viewBox="0 0 24 24">
  <g clipPath="url(#clip0_71_4110)">
    <path fill="none" d="M20 7.5V16.5L16 18.75L12 21L8 18.75L4 16.5V7.5L8 5.25L12 3L16 5.25L20 7.5Z" stroke="#506FA4" strokeWidth="2" strokeLinecap="round" strokeLinejoin="round"/>
    <path fill="none" d="M12 12L16 9.75L20 7.5" stroke="#506FA4" strokeWidth="2" strokeLinecap="round" strokeLinejoin="round"/>
    <path fill="none" d="M12 12V21" stroke="#506FA4" strokeWidth="2" strokeLinecap="round" strokeLinejoin="round"/>
    <path fill="none" d="M12 12L8 9.75L4 7.5" stroke="#506FA4" strokeWidth="2" strokeLinecap="round" strokeLinejoin="round"/>
    <path fill="none" d="M20 12L16 14V18.75" stroke="#506FA4" strokeWidth="2" strokeLinecap="round" strokeLinejoin="round"/>
    <path fill="none" d="M4 12L8 14V18.75" stroke="#506FA4" strokeWidth="2" strokeLinecap="round" strokeLinejoin="round"/>
    <path fill="none" d="M8 5.25L12 7.5L16 5.25" stroke="#506FA4" strokeWidth="2" strokeLinecap="round" strokeLinejoin="round"/>
  </g>
  
</symbol><symbol id="arrow-down" viewBox="0 0 24 24"><path d="M12 5v14" fill="none"/><path d="m19 12-7 7-7-7" fill="none"/></symbol><symbol id="arrow-right" viewBox="0 0 16 16">
  <g clipPath="url(#clip0_1885_4292)">
    <path d="M9.80117 4.39941L6.20117 7.99941L9.80117 11.5994" stroke="#040404" strokeWidth="1.2" strokeLinecap="round" strokeLinejoin="round" fill="none"/>
  </g>
  
</symbol><symbol id="arrow-up-down" viewBox="0 0 24 24"><path d="m21 16-4 4-4-4" fill="none"/><path d="M17 20V4" fill="none"/><path d="m3 8 4-4 4 4" fill="none"/><path d="M7 4v16" fill="none"/></symbol><symbol id="arrow-up" viewBox="0 0 24 24"><path d="m5 12 7-7 7 7" fill="none"/><path d="M12 19V5" fill="none"/></symbol><symbol id="asterisk" viewBox="0 0 24 24"><path stroke="none" d="M0 0h24v24H0z" fill="none"/><path d="M12 12l8 -4.5"/><path d="M12 12v9"/><path d="M12 12l-8 -4.5"/><path d="M12 12l8 4.5"/><path d="M12 3v9"/><path d="M12 12l-8 4.5"/></symbol><symbol id="calendar" viewBox="0 0 20 20">
  <path d="M17.5 8.33366H2.5M13.3333 1.66699V5.00033M6.66667 1.66699V5.00033M6.5 18.3337H13.5C14.9001 18.3337 15.6002 18.3337 16.135 18.0612C16.6054 17.8215 16.9878 17.439 17.2275 16.9686C17.5 16.4339 17.5 15.7338 17.5 14.3337V7.33366C17.5 5.93353 17.5 5.23346 17.2275 4.69868C16.9878 4.22828 16.6054 3.84583 16.135 3.60614C15.6002 3.33366 14.9001 3.33366 13.5 3.33366H6.5C5.09987 3.33366 4.3998 3.33366 3.86502 3.60614C3.39462 3.84583 3.01217 4.22828 2.77248 4.69868C2.5 5.23346 2.5 5.93353 2.5 7.33366V14.3337C2.5 15.7338 2.5 16.4339 2.77248 16.9686C3.01217 17.439 3.39462 17.8215 3.86502 18.0612C4.3998 18.3337 5.09987 18.3337 6.5 18.3337Z" stroke="#2A2A2A" strokeWidth="1.66667" strokeLinecap="round" strokeLinejoin="round"/>
</symbol><symbol id="chevron-down" viewBox="0 0 24 24"><path stroke="none" d="M0 0h24v24H0z" fill="none"/><path d="M6 9l6 6l6 -6"/></symbol><symbol id="circle-check" viewBox="0 0 24 24"><circle cx="12" cy="12" r="10" fill="none"/><path d="m9 12 2 2 4-4" fill="none"/></symbol><symbol id="fill" viewBox="0 0 24 24">
  <g clipPath="url(#clip0_1885_1004)">
    <path fillRule="evenodd" clipRule="evenodd" d="M16 4.05025C14.9525 4.05025 13.9478 4.46638 13.2071 5.2071L5.20712 13.2071C4.4664 13.9478 4.05026 14.9525 4.05026 16C4.05026 17.0475 4.4664 18.0522 5.20712 18.7929C5.94784 19.5336 6.95247 19.9497 8.00001 19.9497C9.04755 19.9497 10.0522 19.5336 10.7929 18.7929L18.7929 10.7929C19.5336 10.0522 19.9498 9.04753 19.9498 7.99999C19.9498 6.95246 19.5336 5.94782 18.7929 5.2071C18.0522 4.46638 17.0475 4.05025 16 4.05025ZM11.7929 3.79289C12.9087 2.67709 14.422 2.05025 16 2.05025C17.578 2.05025 19.0913 2.67709 20.2071 3.79289C21.3229 4.90868 21.9498 6.42202 21.9498 7.99999C21.9498 9.57797 21.3229 11.0913 20.2071 12.2071L12.2071 20.2071C11.0913 21.3229 9.57798 21.9497 8.00001 21.9497C6.42204 21.9497 4.9087 21.3229 3.7929 20.2071C2.67711 19.0913 2.05026 17.578 2.05026 16C2.05026 14.422 2.67711 12.9087 3.7929 11.7929L11.7929 3.79289Z" fill="#506FA4"/>
    <path fillRule="evenodd" clipRule="evenodd" d="M7.79289 7.79289C8.18342 7.40237 8.81658 7.40237 9.20711 7.79289L16.2071 14.7929C16.5976 15.1834 16.5976 15.8166 16.2071 16.2071C15.8166 16.5976 15.1834 16.5976 14.7929 16.2071L7.79289 9.20711C7.40237 8.81658 7.40237 8.18342 7.79289 7.79289Z" fill="#506FA4"/>
  </g>
  
</symbol><symbol id="filter" viewBox="0 0 18 19">
  <path d="M1 1H17V3.172C16.9999 3.70239 16.7891 4.21101 16.414 4.586L12 9V16L6 18V9.5L1.52 4.572C1.18545 4.20393 1.00005 3.7244 1 3.227V1Z" stroke="#2A2A2A" strokeWidth="2" strokeLinecap="round" strokeLinejoin="round"/>
</symbol><symbol id="item" viewBox="0 0 24 24">
  <g clipPath="url(#clip0_1885_1023)">
    <path fillRule="evenodd" clipRule="evenodd" d="M10.2929 4.29289C10.4804 4.10536 10.7348 4 11 4H13C13.2652 4 13.5196 4.10536 13.7071 4.29289C13.8946 4.48043 14 4.73478 14 5V7C14 7.26522 13.8946 7.51957 13.7071 7.70711C13.5196 7.89464 13.2652 8 13 8H12H11C10.7348 8 10.4804 7.89464 10.2929 7.70711C10.1054 7.51957 10 7.26522 10 7V5C10 4.73478 10.1054 4.48043 10.2929 4.29289ZM13 10C13.7957 10 14.5587 9.68393 15.1213 9.12132C15.6839 8.55871 16 7.79565 16 7V5C16 4.20435 15.6839 3.44129 15.1213 2.87868C14.5587 2.31607 13.7956 2 13 2H11C10.2044 2 9.44129 2.31607 8.87868 2.87868C8.31607 3.44129 8 4.20435 8 5V7C8 7.79565 8.31607 8.55871 8.87868 9.12132C9.44129 9.68393 10.2043 10 11 10V11H8C7.20435 11 6.44129 11.3161 5.87868 11.8787C5.31607 12.4413 5 13.2044 5 14C4.20435 14 3.44129 14.3161 2.87868 14.8787C2.31607 15.4413 2 16.2044 2 17V19C2 19.7957 2.31607 20.5587 2.87868 21.1213C3.44129 21.6839 4.20435 22 5 22H7C7.79565 22 8.55871 21.6839 9.12132 21.1213C9.68393 20.5587 10 19.7957 10 19V17C10 16.2043 9.68393 15.4413 9.12132 14.8787C8.55871 14.3161 7.79565 14 7 14C7 13.7348 7.10536 13.4804 7.29289 13.2929C7.48043 13.1054 7.73478 13 8 13H12H16C16.2652 13 16.5196 13.1054 16.7071 13.2929C16.8946 13.4804 17 13.7348 17 14C16.2043 14 15.4413 14.3161 14.8787 14.8787C14.3161 15.4413 14 16.2043 14 17V19C14 19.7957 14.3161 20.5587 14.8787 21.1213C15.4413 21.6839 16.2043 22 17 22H19C19.7957 22 20.5587 21.6839 21.1213 21.1213C21.6839 20.5587 22 19.7957 22 19V17C22 16.2043 21.6839 15.4413 21.1213 14.8787C20.5587 14.3161 19.7957 14 19 14C19 13.2043 18.6839 12.4413 18.1213 11.8787C17.5587 11.3161 16.7957 11 16 11H13V10ZM5 16C4.73478 16 4.48043 16.1054 4.29289 16.2929C4.10536 16.4804 4 16.7348 4 17V19C4 19.2652 4.10536 19.5196 4.29289 19.7071C4.48043 19.8946 4.73478 20 5 20H7C7.26522 20 7.51957 19.8946 7.70711 19.7071C7.89464 19.5196 8 19.2652 8 19V17C8 16.7348 7.89464 16.4804 7.70711 16.2929C7.51957 16.1054 7.26522 16 7 16H6H5ZM17 16H18H19C19.2652 16 19.5196 16.1054 19.7071 16.2929C19.8946 16.4804 20 16.7348 20 17V19C20 19.2652 19.8946 19.5196 19.7071 19.7071C19.5196 19.8946 19.2652 20 19 20H17C16.7348 20 16.4804 19.8946 16.2929 19.7071C16.1054 19.5196 16 19.2652 16 19V17C16 16.7348 16.1054 16.4804 16.2929 16.2929C16.4804 16.1054 16.7348 16 17 16Z" fill="#506FA4"/>
  </g>
  
</symbol><symbol id="logout" viewBox="0 0 24 24">
  <g clipPath="url(#clip0_1885_14241)">
    <path d="M14 8V6C14 5.46957 13.7893 4.96086 13.4142 4.58579C13.0391 4.21071 12.5304 4 12 4H5C4.46957 4 3.96086 4.21071 3.58579 4.58579C3.21071 4.96086 3 5.46957 3 6V18C3 18.5304 3.21071 19.0391 3.58579 19.4142C3.96086 19.7893 4.46957 20 5 20H12C12.5304 20 13.0391 19.7893 13.4142 19.4142C13.7893 19.0391 14 18.5304 14 18V16" stroke="#AF2500" strokeWidth="2" strokeLinecap="round" strokeLinejoin="round" fill="none"/>
    <path d="M9 12H21L18 9" fill="none" stroke="#AF2500" strokeWidth="2" strokeLinecap="round" strokeLinejoin="round"/>
    <path d="M18 15L21 12" fill="none" stroke="#AF2500" strokeWidth="2" strokeLinecap="round" strokeLinejoin="round"/>
  </g>
  
</symbol><symbol id="prescription-match" viewBox="0 0 24 24">
  <g clipPath="url(#clip0_1885_1009)">
    <path fillRule="evenodd" clipRule="evenodd" d="M11.2928 3.29294C11.6834 2.90241 12.3165 2.90241 12.707 3.29294L16.707 7.29294C17.0976 7.68346 17.0976 8.31663 16.707 8.70715C16.3165 9.09768 15.6834 9.09768 15.2928 8.70715L11.9999 5.41426L8.70705 8.70715C8.31652 9.09768 7.68336 9.09768 7.29283 8.70715C6.90231 8.31663 6.90231 7.68346 7.29283 7.29294L11.2928 3.29294Z" fill="#506FA4"/>
    <path fillRule="evenodd" clipRule="evenodd" d="M12 3.00005C12.5523 3.00005 13 3.44776 13 4.00005V20C13 20.5523 12.5523 21 12 21C11.4477 21 11 20.5523 11 20V4.00005C11 3.44776 11.4477 3.00005 12 3.00005Z" fill="#506FA4"/>
    <path fillRule="evenodd" clipRule="evenodd" d="M12 6.99995C12.5523 6.99995 13 7.44767 13 7.99995C13 10.783 12.4792 13.1448 11.3575 15.0144C10.2239 16.9038 8.522 18.2136 6.31612 18.9487C5.79217 19.1233 5.22587 18.8401 5.05126 18.3161C4.87665 17.7922 5.15985 17.2259 5.68381 17.0512C7.47793 16.4534 8.77603 15.4296 9.64246 13.9855C10.5208 12.5216 11 10.55 11 7.99995C11 7.44767 11.4477 6.99995 12 6.99995Z" fill="#506FA4"/>
  </g>
  
</symbol><symbol id="prescription" viewBox="0 0 24 24">
  <g clipPath="url(#clip0_1885_998)">
    <path fillRule="evenodd" clipRule="evenodd" d="M5 3C5 2.44772 5.44772 2 6 2H10.5C11.9587 2 13.3576 2.57946 14.3891 3.61091C15.4205 4.64236 16 6.04131 16 7.5C16 8.95869 15.4205 10.3576 14.3891 11.3891C13.3576 12.4205 11.9587 13 10.5 13H7V19C7 19.5523 6.55228 20 6 20C5.44772 20 5 19.5523 5 19V3ZM7 11H10.5C11.4283 11 12.3185 10.6313 12.9749 9.97487C13.6313 9.3185 14 8.42826 14 7.5C14 6.57174 13.6313 5.6815 12.9749 5.02513C12.3185 4.36875 11.4283 4 10.5 4H7V11Z" fill="#506FA4"/>
    <path fillRule="evenodd" clipRule="evenodd" d="M9.29289 11.2929C9.68342 10.9024 10.3166 10.9024 10.7071 11.2929L19.7071 20.2929C20.0976 20.6834 20.0976 21.3166 19.7071 21.7071C19.3166 22.0976 18.6834 22.0976 18.2929 21.7071L9.29289 12.7071C8.90237 12.3166 8.90237 11.6834 9.29289 11.2929Z" fill="#506FA4"/>
    <path fillRule="evenodd" clipRule="evenodd" d="M19.7071 14.2929C20.0976 14.6834 20.0976 15.3166 19.7071 15.7071L13.7071 21.7071C13.3166 22.0976 12.6834 22.0976 12.2929 21.7071C11.9024 21.3166 11.9024 20.6834 12.2929 20.2929L18.2929 14.2929C18.6834 13.9024 19.3166 13.9024 19.7071 14.2929Z" fill="#506FA4"/>
  </g>
  
</symbol><symbol id="search" viewBox="0 0 20 20">
  <path fillRule="evenodd" clipRule="evenodd" d="M14.8571 7.42857C14.8571 3.32588 11.5313 0 7.42857 0C3.32588 0 0 3.32588 0 7.42857C0 11.5313 3.32588 14.8571 7.42857 14.8571C9.26857 14.8571 10.96 14.1829 12.2629 13.0743L12.5714 13.3829V14.2857L18.2857 20L20 18.2857L14.2857 12.5714H13.3829L13.0743 12.2629C14.1829 10.96 14.8571 9.26857 14.8571 7.42857ZM2.28571 7.42857C2.28571 4.57143 4.57143 2.28571 7.42857 2.28571C10.2857 2.28571 12.5714 4.57143 12.5714 7.42857C12.5714 10.2857 10.2857 12.5714 7.42857 12.5714C4.57143 12.5714 2.28571 10.2857 2.28571 7.42857Z" fill="black"/>
</symbol><symbol id="sliders-horizontal" viewBox="0 0 24 24"><line x1="21" x2="14" y1="4" y2="4" fill="none"/><line x1="10" x2="3" y1="4" y2="4" fill="none"/><line x1="21" x2="12" y1="12" y2="12" fill="none"/><line x1="8" x2="3" y1="12" y2="12" fill="none"/><line x1="21" x2="16" y1="20" y2="20" fill="none"/><line x1="12" x2="3" y1="20" y2="20" fill="none"/><line x1="14" x2="14" y1="2" y2="6" fill="none"/><line x1="8" x2="8" y1="10" y2="14" fill="none"/><line x1="16" x2="16" y1="18" y2="22" fill="none"/></symbol><symbol id="sprite"><symbol id="account" viewBox="0 0 24 24">
  <g clipPath="url(#clip0_71_4110)">
    <path fill="none" d="M20 7.5V16.5L16 18.75L12 21L8 18.75L4 16.5V7.5L8 5.25L12 3L16 5.25L20 7.5Z" stroke="#506FA4" strokeWidth="2" strokeLinecap="round" strokeLinejoin="round"/>
    <path fill="none" d="M12 12L16 9.75L20 7.5" stroke="#506FA4" strokeWidth="2" strokeLinecap="round" strokeLinejoin="round"/>
    <path fill="none" d="M12 12V21" stroke="#506FA4" strokeWidth="2" strokeLinecap="round" strokeLinejoin="round"/>
    <path fill="none" d="M12 12L8 9.75L4 7.5" stroke="#506FA4" strokeWidth="2" strokeLinecap="round" strokeLinejoin="round"/>
    <path fill="none" d="M20 12L16 14V18.75" stroke="#506FA4" strokeWidth="2" strokeLinecap="round" strokeLinejoin="round"/>
    <path fill="none" d="M4 12L8 14V18.75" stroke="#506FA4" strokeWidth="2" strokeLinecap="round" strokeLinejoin="round"/>
    <path fill="none" d="M8 5.25L12 7.5L16 5.25" stroke="#506FA4" strokeWidth="2" strokeLinecap="round" strokeLinejoin="round"/>
  </g>
  
</symbol><symbol id="arrow-down" viewBox="0 0 24 24"><path d="M12 5v14" fill="none"/><path d="m19 12-7 7-7-7" fill="none"/></symbol><symbol id="arrow-right" viewBox="0 0 16 16">
  <g clipPath="url(#clip0_1885_4292)">
    <path d="M9.80117 4.39941L6.20117 7.99941L9.80117 11.5994" stroke="#040404" strokeWidth="1.2" strokeLinecap="round" strokeLinejoin="round" fill="none"/>
  </g>
  
</symbol><symbol id="arrow-up-down" viewBox="0 0 24 24"><path d="m21 16-4 4-4-4" fill="none"/><path d="M17 20V4" fill="none"/><path d="m3 8 4-4 4 4" fill="none"/><path d="M7 4v16" fill="none"/></symbol><symbol id="arrow-up" viewBox="0 0 24 24"><path d="m5 12 7-7 7 7" fill="none"/><path d="M12 19V5" fill="none"/></symbol><symbol id="asterisk" viewBox="0 0 24 24"><path stroke="none" d="M0 0h24v24H0z" fill="none"/><path d="M12 12l8 -4.5"/><path d="M12 12v9"/><path d="M12 12l-8 -4.5"/><path d="M12 12l8 4.5"/><path d="M12 3v9"/><path d="M12 12l-8 4.5"/></symbol><symbol id="calendar" viewBox="0 0 20 20">
  <path d="M17.5 8.33366H2.5M13.3333 1.66699V5.00033M6.66667 1.66699V5.00033M6.5 18.3337H13.5C14.9001 18.3337 15.6002 18.3337 16.135 18.0612C16.6054 17.8215 16.9878 17.439 17.2275 16.9686C17.5 16.4339 17.5 15.7338 17.5 14.3337V7.33366C17.5 5.93353 17.5 5.23346 17.2275 4.69868C16.9878 4.22828 16.6054 3.84583 16.135 3.60614C15.6002 3.33366 14.9001 3.33366 13.5 3.33366H6.5C5.09987 3.33366 4.3998 3.33366 3.86502 3.60614C3.39462 3.84583 3.01217 4.22828 2.77248 4.69868C2.5 5.23346 2.5 5.93353 2.5 7.33366V14.3337C2.5 15.7338 2.5 16.4339 2.77248 16.9686C3.01217 17.439 3.39462 17.8215 3.86502 18.0612C4.3998 18.3337 5.09987 18.3337 6.5 18.3337Z" stroke="#2A2A2A" strokeWidth="1.66667" strokeLinecap="round" strokeLinejoin="round"/>
</symbol><symbol id="chevron-down" viewBox="0 0 24 24"><path stroke="none" d="M0 0h24v24H0z" fill="none"/><path d="M6 9l6 6l6 -6"/></symbol><symbol id="circle-check" viewBox="0 0 24 24"><circle cx="12" cy="12" r="10" fill="none"/><path d="m9 12 2 2 4-4" fill="none"/></symbol><symbol id="fill" viewBox="0 0 24 24">
  <g clipPath="url(#clip0_1885_1004)">
    <path fillRule="evenodd" clipRule="evenodd" d="M16 4.05025C14.9525 4.05025 13.9478 4.46638 13.2071 5.2071L5.20712 13.2071C4.4664 13.9478 4.05026 14.9525 4.05026 16C4.05026 17.0475 4.4664 18.0522 5.20712 18.7929C5.94784 19.5336 6.95247 19.9497 8.00001 19.9497C9.04755 19.9497 10.0522 19.5336 10.7929 18.7929L18.7929 10.7929C19.5336 10.0522 19.9498 9.04753 19.9498 7.99999C19.9498 6.95246 19.5336 5.94782 18.7929 5.2071C18.0522 4.46638 17.0475 4.05025 16 4.05025ZM11.7929 3.79289C12.9087 2.67709 14.422 2.05025 16 2.05025C17.578 2.05025 19.0913 2.67709 20.2071 3.79289C21.3229 4.90868 21.9498 6.42202 21.9498 7.99999C21.9498 9.57797 21.3229 11.0913 20.2071 12.2071L12.2071 20.2071C11.0913 21.3229 9.57798 21.9497 8.00001 21.9497C6.42204 21.9497 4.9087 21.3229 3.7929 20.2071C2.67711 19.0913 2.05026 17.578 2.05026 16C2.05026 14.422 2.67711 12.9087 3.7929 11.7929L11.7929 3.79289Z" fill="#506FA4"/>
    <path fillRule="evenodd" clipRule="evenodd" d="M7.79289 7.79289C8.18342 7.40237 8.81658 7.40237 9.20711 7.79289L16.2071 14.7929C16.5976 15.1834 16.5976 15.8166 16.2071 16.2071C15.8166 16.5976 15.1834 16.5976 14.7929 16.2071L7.79289 9.20711C7.40237 8.81658 7.40237 8.18342 7.79289 7.79289Z" fill="#506FA4"/>
  </g>
  
</symbol><symbol id="filter" viewBox="0 0 18 19">
  <path d="M1 1H17V3.172C16.9999 3.70239 16.7891 4.21101 16.414 4.586L12 9V16L6 18V9.5L1.52 4.572C1.18545 4.20393 1.00005 3.7244 1 3.227V1Z" stroke="#2A2A2A" strokeWidth="2" strokeLinecap="round" strokeLinejoin="round"/>
</symbol><symbol id="item" viewBox="0 0 24 24">
  <g clipPath="url(#clip0_1885_1023)">
    <path fillRule="evenodd" clipRule="evenodd" d="M10.2929 4.29289C10.4804 4.10536 10.7348 4 11 4H13C13.2652 4 13.5196 4.10536 13.7071 4.29289C13.8946 4.48043 14 4.73478 14 5V7C14 7.26522 13.8946 7.51957 13.7071 7.70711C13.5196 7.89464 13.2652 8 13 8H12H11C10.7348 8 10.4804 7.89464 10.2929 7.70711C10.1054 7.51957 10 7.26522 10 7V5C10 4.73478 10.1054 4.48043 10.2929 4.29289ZM13 10C13.7957 10 14.5587 9.68393 15.1213 9.12132C15.6839 8.55871 16 7.79565 16 7V5C16 4.20435 15.6839 3.44129 15.1213 2.87868C14.5587 2.31607 13.7956 2 13 2H11C10.2044 2 9.44129 2.31607 8.87868 2.87868C8.31607 3.44129 8 4.20435 8 5V7C8 7.79565 8.31607 8.55871 8.87868 9.12132C9.44129 9.68393 10.2043 10 11 10V11H8C7.20435 11 6.44129 11.3161 5.87868 11.8787C5.31607 12.4413 5 13.2044 5 14C4.20435 14 3.44129 14.3161 2.87868 14.8787C2.31607 15.4413 2 16.2044 2 17V19C2 19.7957 2.31607 20.5587 2.87868 21.1213C3.44129 21.6839 4.20435 22 5 22H7C7.79565 22 8.55871 21.6839 9.12132 21.1213C9.68393 20.5587 10 19.7957 10 19V17C10 16.2043 9.68393 15.4413 9.12132 14.8787C8.55871 14.3161 7.79565 14 7 14C7 13.7348 7.10536 13.4804 7.29289 13.2929C7.48043 13.1054 7.73478 13 8 13H12H16C16.2652 13 16.5196 13.1054 16.7071 13.2929C16.8946 13.4804 17 13.7348 17 14C16.2043 14 15.4413 14.3161 14.8787 14.8787C14.3161 15.4413 14 16.2043 14 17V19C14 19.7957 14.3161 20.5587 14.8787 21.1213C15.4413 21.6839 16.2043 22 17 22H19C19.7957 22 20.5587 21.6839 21.1213 21.1213C21.6839 20.5587 22 19.7957 22 19V17C22 16.2043 21.6839 15.4413 21.1213 14.8787C20.5587 14.3161 19.7957 14 19 14C19 13.2043 18.6839 12.4413 18.1213 11.8787C17.5587 11.3161 16.7957 11 16 11H13V10ZM5 16C4.73478 16 4.48043 16.1054 4.29289 16.2929C4.10536 16.4804 4 16.7348 4 17V19C4 19.2652 4.10536 19.5196 4.29289 19.7071C4.48043 19.8946 4.73478 20 5 20H7C7.26522 20 7.51957 19.8946 7.70711 19.7071C7.89464 19.5196 8 19.2652 8 19V17C8 16.7348 7.89464 16.4804 7.70711 16.2929C7.51957 16.1054 7.26522 16 7 16H6H5ZM17 16H18H19C19.2652 16 19.5196 16.1054 19.7071 16.2929C19.8946 16.4804 20 16.7348 20 17V19C20 19.2652 19.8946 19.5196 19.7071 19.7071C19.5196 19.8946 19.2652 20 19 20H17C16.7348 20 16.4804 19.8946 16.2929 19.7071C16.1054 19.5196 16 19.2652 16 19V17C16 16.7348 16.1054 16.4804 16.2929 16.2929C16.4804 16.1054 16.7348 16 17 16Z" fill="#506FA4"/>
  </g>
  
</symbol><symbol id="logout" viewBox="0 0 24 24">
  <g clipPath="url(#clip0_1885_14241)">
    <path d="M14 8V6C14 5.46957 13.7893 4.96086 13.4142 4.58579C13.0391 4.21071 12.5304 4 12 4H5C4.46957 4 3.96086 4.21071 3.58579 4.58579C3.21071 4.96086 3 5.46957 3 6V18C3 18.5304 3.21071 19.0391 3.58579 19.4142C3.96086 19.7893 4.46957 20 5 20H12C12.5304 20 13.0391 19.7893 13.4142 19.4142C13.7893 19.0391 14 18.5304 14 18V16" stroke="#AF2500" strokeWidth="2" strokeLinecap="round" strokeLinejoin="round" fill="none"/>
    <path d="M9 12H21L18 9" fill="none" stroke="#AF2500" strokeWidth="2" strokeLinecap="round" strokeLinejoin="round"/>
    <path d="M18 15L21 12" fill="none" stroke="#AF2500" strokeWidth="2" strokeLinecap="round" strokeLinejoin="round"/>
  </g>
  
</symbol><symbol id="prescription-match" viewBox="0 0 24 24">
  <g clipPath="url(#clip0_1885_1009)">
    <path fillRule="evenodd" clipRule="evenodd" d="M11.2928 3.29294C11.6834 2.90241 12.3165 2.90241 12.707 3.29294L16.707 7.29294C17.0976 7.68346 17.0976 8.31663 16.707 8.70715C16.3165 9.09768 15.6834 9.09768 15.2928 8.70715L11.9999 5.41426L8.70705 8.70715C8.31652 9.09768 7.68336 9.09768 7.29283 8.70715C6.90231 8.31663 6.90231 7.68346 7.29283 7.29294L11.2928 3.29294Z" fill="#506FA4"/>
    <path fillRule="evenodd" clipRule="evenodd" d="M12 3.00005C12.5523 3.00005 13 3.44776 13 4.00005V20C13 20.5523 12.5523 21 12 21C11.4477 21 11 20.5523 11 20V4.00005C11 3.44776 11.4477 3.00005 12 3.00005Z" fill="#506FA4"/>
    <path fillRule="evenodd" clipRule="evenodd" d="M12 6.99995C12.5523 6.99995 13 7.44767 13 7.99995C13 10.783 12.4792 13.1448 11.3575 15.0144C10.2239 16.9038 8.522 18.2136 6.31612 18.9487C5.79217 19.1233 5.22587 18.8401 5.05126 18.3161C4.87665 17.7922 5.15985 17.2259 5.68381 17.0512C7.47793 16.4534 8.77603 15.4296 9.64246 13.9855C10.5208 12.5216 11 10.55 11 7.99995C11 7.44767 11.4477 6.99995 12 6.99995Z" fill="#506FA4"/>
  </g>
  
</symbol><symbol id="prescription" viewBox="0 0 24 24">
  <g clipPath="url(#clip0_1885_998)">
    <path fillRule="evenodd" clipRule="evenodd" d="M5 3C5 2.44772 5.44772 2 6 2H10.5C11.9587 2 13.3576 2.57946 14.3891 3.61091C15.4205 4.64236 16 6.04131 16 7.5C16 8.95869 15.4205 10.3576 14.3891 11.3891C13.3576 12.4205 11.9587 13 10.5 13H7V19C7 19.5523 6.55228 20 6 20C5.44772 20 5 19.5523 5 19V3ZM7 11H10.5C11.4283 11 12.3185 10.6313 12.9749 9.97487C13.6313 9.3185 14 8.42826 14 7.5C14 6.57174 13.6313 5.6815 12.9749 5.02513C12.3185 4.36875 11.4283 4 10.5 4H7V11Z" fill="#506FA4"/>
    <path fillRule="evenodd" clipRule="evenodd" d="M9.29289 11.2929C9.68342 10.9024 10.3166 10.9024 10.7071 11.2929L19.7071 20.2929C20.0976 20.6834 20.0976 21.3166 19.7071 21.7071C19.3166 22.0976 18.6834 22.0976 18.2929 21.7071L9.29289 12.7071C8.90237 12.3166 8.90237 11.6834 9.29289 11.2929Z" fill="#506FA4"/>
    <path fillRule="evenodd" clipRule="evenodd" d="M19.7071 14.2929C20.0976 14.6834 20.0976 15.3166 19.7071 15.7071L13.7071 21.7071C13.3166 22.0976 12.6834 22.0976 12.2929 21.7071C11.9024 21.3166 11.9024 20.6834 12.2929 20.2929L18.2929 14.2929C18.6834 13.9024 19.3166 13.9024 19.7071 14.2929Z" fill="#506FA4"/>
  </g>
  
</symbol><symbol id="search" viewBox="0 0 20 20">
  <path fillRule="evenodd" clipRule="evenodd" d="M14.8571 7.42857C14.8571 3.32588 11.5313 0 7.42857 0C3.32588 0 0 3.32588 0 7.42857C0 11.5313 3.32588 14.8571 7.42857 14.8571C9.26857 14.8571 10.96 14.1829 12.2629 13.0743L12.5714 13.3829V14.2857L18.2857 20L20 18.2857L14.2857 12.5714H13.3829L13.0743 12.2629C14.1829 10.96 14.8571 9.26857 14.8571 7.42857ZM2.28571 7.42857C2.28571 4.57143 4.57143 2.28571 7.42857 2.28571C10.2857 2.28571 12.5714 4.57143 12.5714 7.42857C12.5714 10.2857 10.2857 12.5714 7.42857 12.5714C4.57143 12.5714 2.28571 10.2857 2.28571 7.42857Z" fill="black"/>
</symbol><symbol id="sliders-horizontal" viewBox="0 0 24 24"><line x1="21" x2="14" y1="4" y2="4" fill="none"/><line x1="10" x2="3" y1="4" y2="4" fill="none"/><line x1="21" x2="12" y1="12" y2="12" fill="none"/><line x1="8" x2="3" y1="12" y2="12" fill="none"/><line x1="21" x2="16" y1="20" y2="20" fill="none"/><line x1="12" x2="3" y1="20" y2="20" fill="none"/><line x1="14" x2="14" y1="2" y2="6" fill="none"/><line x1="8" x2="8" y1="10" y2="14" fill="none"/><line x1="16" x2="16" y1="18" y2="22" fill="none"/></symbol><symbol id="sprite"><symbol id="account" viewBox="0 0 24 24">
  <g clipPath="url(#clip0_71_4110)">
    <path fill="none" d="M20 7.5V16.5L16 18.75L12 21L8 18.75L4 16.5V7.5L8 5.25L12 3L16 5.25L20 7.5Z" stroke="#506FA4" strokeWidth="2" strokeLinecap="round" strokeLinejoin="round"/>
    <path fill="none" d="M12 12L16 9.75L20 7.5" stroke="#506FA4" strokeWidth="2" strokeLinecap="round" strokeLinejoin="round"/>
    <path fill="none" d="M12 12V21" stroke="#506FA4" strokeWidth="2" strokeLinecap="round" strokeLinejoin="round"/>
    <path fill="none" d="M12 12L8 9.75L4 7.5" stroke="#506FA4" strokeWidth="2" strokeLinecap="round" strokeLinejoin="round"/>
    <path fill="none" d="M20 12L16 14V18.75" stroke="#506FA4" strokeWidth="2" strokeLinecap="round" strokeLinejoin="round"/>
    <path fill="none" d="M4 12L8 14V18.75" stroke="#506FA4" strokeWidth="2" strokeLinecap="round" strokeLinejoin="round"/>
    <path fill="none" d="M8 5.25L12 7.5L16 5.25" stroke="#506FA4" strokeWidth="2" strokeLinecap="round" strokeLinejoin="round"/>
  </g>
  
</symbol><symbol id="arrow-down" viewBox="0 0 24 24"><path d="M12 5v14" fill="none"/><path d="m19 12-7 7-7-7" fill="none"/></symbol><symbol id="arrow-right" viewBox="0 0 16 16">
  <g clipPath="url(#clip0_1885_4292)">
    <path d="M9.80117 4.39941L6.20117 7.99941L9.80117 11.5994" stroke="#040404" strokeWidth="1.2" strokeLinecap="round" strokeLinejoin="round" fill="none"/>
  </g>
  
</symbol><symbol id="arrow-up-down" viewBox="0 0 24 24"><path d="m21 16-4 4-4-4" fill="none"/><path d="M17 20V4" fill="none"/><path d="m3 8 4-4 4 4" fill="none"/><path d="M7 4v16" fill="none"/></symbol><symbol id="arrow-up" viewBox="0 0 24 24"><path d="m5 12 7-7 7 7" fill="none"/><path d="M12 19V5" fill="none"/></symbol><symbol id="asterisk" viewBox="0 0 24 24"><path stroke="none" d="M0 0h24v24H0z" fill="none"/><path d="M12 12l8 -4.5"/><path d="M12 12v9"/><path d="M12 12l-8 -4.5"/><path d="M12 12l8 4.5"/><path d="M12 3v9"/><path d="M12 12l-8 4.5"/></symbol><symbol id="calendar" viewBox="0 0 20 20">
  <path d="M17.5 8.33366H2.5M13.3333 1.66699V5.00033M6.66667 1.66699V5.00033M6.5 18.3337H13.5C14.9001 18.3337 15.6002 18.3337 16.135 18.0612C16.6054 17.8215 16.9878 17.439 17.2275 16.9686C17.5 16.4339 17.5 15.7338 17.5 14.3337V7.33366C17.5 5.93353 17.5 5.23346 17.2275 4.69868C16.9878 4.22828 16.6054 3.84583 16.135 3.60614C15.6002 3.33366 14.9001 3.33366 13.5 3.33366H6.5C5.09987 3.33366 4.3998 3.33366 3.86502 3.60614C3.39462 3.84583 3.01217 4.22828 2.77248 4.69868C2.5 5.23346 2.5 5.93353 2.5 7.33366V14.3337C2.5 15.7338 2.5 16.4339 2.77248 16.9686C3.01217 17.439 3.39462 17.8215 3.86502 18.0612C4.3998 18.3337 5.09987 18.3337 6.5 18.3337Z" stroke="#2A2A2A" strokeWidth="1.66667" strokeLinecap="round" strokeLinejoin="round"/>
</symbol><symbol id="chevron-down" viewBox="0 0 24 24"><path stroke="none" d="M0 0h24v24H0z" fill="none"/><path d="M6 9l6 6l6 -6"/></symbol><symbol id="circle-check" viewBox="0 0 24 24"><circle cx="12" cy="12" r="10" fill="none"/><path d="m9 12 2 2 4-4" fill="none"/></symbol><symbol id="fill" viewBox="0 0 24 24">
  <g clipPath="url(#clip0_1885_1004)">
    <path fillRule="evenodd" clipRule="evenodd" d="M16 4.05025C14.9525 4.05025 13.9478 4.46638 13.2071 5.2071L5.20712 13.2071C4.4664 13.9478 4.05026 14.9525 4.05026 16C4.05026 17.0475 4.4664 18.0522 5.20712 18.7929C5.94784 19.5336 6.95247 19.9497 8.00001 19.9497C9.04755 19.9497 10.0522 19.5336 10.7929 18.7929L18.7929 10.7929C19.5336 10.0522 19.9498 9.04753 19.9498 7.99999C19.9498 6.95246 19.5336 5.94782 18.7929 5.2071C18.0522 4.46638 17.0475 4.05025 16 4.05025ZM11.7929 3.79289C12.9087 2.67709 14.422 2.05025 16 2.05025C17.578 2.05025 19.0913 2.67709 20.2071 3.79289C21.3229 4.90868 21.9498 6.42202 21.9498 7.99999C21.9498 9.57797 21.3229 11.0913 20.2071 12.2071L12.2071 20.2071C11.0913 21.3229 9.57798 21.9497 8.00001 21.9497C6.42204 21.9497 4.9087 21.3229 3.7929 20.2071C2.67711 19.0913 2.05026 17.578 2.05026 16C2.05026 14.422 2.67711 12.9087 3.7929 11.7929L11.7929 3.79289Z" fill="#506FA4"/>
    <path fillRule="evenodd" clipRule="evenodd" d="M7.79289 7.79289C8.18342 7.40237 8.81658 7.40237 9.20711 7.79289L16.2071 14.7929C16.5976 15.1834 16.5976 15.8166 16.2071 16.2071C15.8166 16.5976 15.1834 16.5976 14.7929 16.2071L7.79289 9.20711C7.40237 8.81658 7.40237 8.18342 7.79289 7.79289Z" fill="#506FA4"/>
  </g>
  
</symbol><symbol id="filter" viewBox="0 0 18 19">
  <path d="M1 1H17V3.172C16.9999 3.70239 16.7891 4.21101 16.414 4.586L12 9V16L6 18V9.5L1.52 4.572C1.18545 4.20393 1.00005 3.7244 1 3.227V1Z" stroke="#2A2A2A" strokeWidth="2" strokeLinecap="round" strokeLinejoin="round"/>
</symbol><symbol id="item" viewBox="0 0 24 24">
  <g clipPath="url(#clip0_1885_1023)">
    <path fillRule="evenodd" clipRule="evenodd" d="M10.2929 4.29289C10.4804 4.10536 10.7348 4 11 4H13C13.2652 4 13.5196 4.10536 13.7071 4.29289C13.8946 4.48043 14 4.73478 14 5V7C14 7.26522 13.8946 7.51957 13.7071 7.70711C13.5196 7.89464 13.2652 8 13 8H12H11C10.7348 8 10.4804 7.89464 10.2929 7.70711C10.1054 7.51957 10 7.26522 10 7V5C10 4.73478 10.1054 4.48043 10.2929 4.29289ZM13 10C13.7957 10 14.5587 9.68393 15.1213 9.12132C15.6839 8.55871 16 7.79565 16 7V5C16 4.20435 15.6839 3.44129 15.1213 2.87868C14.5587 2.31607 13.7956 2 13 2H11C10.2044 2 9.44129 2.31607 8.87868 2.87868C8.31607 3.44129 8 4.20435 8 5V7C8 7.79565 8.31607 8.55871 8.87868 9.12132C9.44129 9.68393 10.2043 10 11 10V11H8C7.20435 11 6.44129 11.3161 5.87868 11.8787C5.31607 12.4413 5 13.2044 5 14C4.20435 14 3.44129 14.3161 2.87868 14.8787C2.31607 15.4413 2 16.2044 2 17V19C2 19.7957 2.31607 20.5587 2.87868 21.1213C3.44129 21.6839 4.20435 22 5 22H7C7.79565 22 8.55871 21.6839 9.12132 21.1213C9.68393 20.5587 10 19.7957 10 19V17C10 16.2043 9.68393 15.4413 9.12132 14.8787C8.55871 14.3161 7.79565 14 7 14C7 13.7348 7.10536 13.4804 7.29289 13.2929C7.48043 13.1054 7.73478 13 8 13H12H16C16.2652 13 16.5196 13.1054 16.7071 13.2929C16.8946 13.4804 17 13.7348 17 14C16.2043 14 15.4413 14.3161 14.8787 14.8787C14.3161 15.4413 14 16.2043 14 17V19C14 19.7957 14.3161 20.5587 14.8787 21.1213C15.4413 21.6839 16.2043 22 17 22H19C19.7957 22 20.5587 21.6839 21.1213 21.1213C21.6839 20.5587 22 19.7957 22 19V17C22 16.2043 21.6839 15.4413 21.1213 14.8787C20.5587 14.3161 19.7957 14 19 14C19 13.2043 18.6839 12.4413 18.1213 11.8787C17.5587 11.3161 16.7957 11 16 11H13V10ZM5 16C4.73478 16 4.48043 16.1054 4.29289 16.2929C4.10536 16.4804 4 16.7348 4 17V19C4 19.2652 4.10536 19.5196 4.29289 19.7071C4.48043 19.8946 4.73478 20 5 20H7C7.26522 20 7.51957 19.8946 7.70711 19.7071C7.89464 19.5196 8 19.2652 8 19V17C8 16.7348 7.89464 16.4804 7.70711 16.2929C7.51957 16.1054 7.26522 16 7 16H6H5ZM17 16H18H19C19.2652 16 19.5196 16.1054 19.7071 16.2929C19.8946 16.4804 20 16.7348 20 17V19C20 19.2652 19.8946 19.5196 19.7071 19.7071C19.5196 19.8946 19.2652 20 19 20H17C16.7348 20 16.4804 19.8946 16.2929 19.7071C16.1054 19.5196 16 19.2652 16 19V17C16 16.7348 16.1054 16.4804 16.2929 16.2929C16.4804 16.1054 16.7348 16 17 16Z" fill="#506FA4"/>
  </g>
  
</symbol><symbol id="logout" viewBox="0 0 24 24">
  <g clipPath="url(#clip0_1885_14241)">
    <path d="M14 8V6C14 5.46957 13.7893 4.96086 13.4142 4.58579C13.0391 4.21071 12.5304 4 12 4H5C4.46957 4 3.96086 4.21071 3.58579 4.58579C3.21071 4.96086 3 5.46957 3 6V18C3 18.5304 3.21071 19.0391 3.58579 19.4142C3.96086 19.7893 4.46957 20 5 20H12C12.5304 20 13.0391 19.7893 13.4142 19.4142C13.7893 19.0391 14 18.5304 14 18V16" stroke="#AF2500" strokeWidth="2" strokeLinecap="round" strokeLinejoin="round" fill="none"/>
    <path d="M9 12H21L18 9" fill="none" stroke="#AF2500" strokeWidth="2" strokeLinecap="round" strokeLinejoin="round"/>
    <path d="M18 15L21 12" fill="none" stroke="#AF2500" strokeWidth="2" strokeLinecap="round" strokeLinejoin="round"/>
  </g>
  
</symbol><symbol id="prescription-match" viewBox="0 0 24 24">
  <g clipPath="url(#clip0_1885_1009)">
    <path fillRule="evenodd" clipRule="evenodd" d="M11.2928 3.29294C11.6834 2.90241 12.3165 2.90241 12.707 3.29294L16.707 7.29294C17.0976 7.68346 17.0976 8.31663 16.707 8.70715C16.3165 9.09768 15.6834 9.09768 15.2928 8.70715L11.9999 5.41426L8.70705 8.70715C8.31652 9.09768 7.68336 9.09768 7.29283 8.70715C6.90231 8.31663 6.90231 7.68346 7.29283 7.29294L11.2928 3.29294Z" fill="#506FA4"/>
    <path fillRule="evenodd" clipRule="evenodd" d="M12 3.00005C12.5523 3.00005 13 3.44776 13 4.00005V20C13 20.5523 12.5523 21 12 21C11.4477 21 11 20.5523 11 20V4.00005C11 3.44776 11.4477 3.00005 12 3.00005Z" fill="#506FA4"/>
    <path fillRule="evenodd" clipRule="evenodd" d="M12 6.99995C12.5523 6.99995 13 7.44767 13 7.99995C13 10.783 12.4792 13.1448 11.3575 15.0144C10.2239 16.9038 8.522 18.2136 6.31612 18.9487C5.79217 19.1233 5.22587 18.8401 5.05126 18.3161C4.87665 17.7922 5.15985 17.2259 5.68381 17.0512C7.47793 16.4534 8.77603 15.4296 9.64246 13.9855C10.5208 12.5216 11 10.55 11 7.99995C11 7.44767 11.4477 6.99995 12 6.99995Z" fill="#506FA4"/>
  </g>
  
</symbol><symbol id="prescription" viewBox="0 0 24 24">
  <g clipPath="url(#clip0_1885_998)">
    <path fillRule="evenodd" clipRule="evenodd" d="M5 3C5 2.44772 5.44772 2 6 2H10.5C11.9587 2 13.3576 2.57946 14.3891 3.61091C15.4205 4.64236 16 6.04131 16 7.5C16 8.95869 15.4205 10.3576 14.3891 11.3891C13.3576 12.4205 11.9587 13 10.5 13H7V19C7 19.5523 6.55228 20 6 20C5.44772 20 5 19.5523 5 19V3ZM7 11H10.5C11.4283 11 12.3185 10.6313 12.9749 9.97487C13.6313 9.3185 14 8.42826 14 7.5C14 6.57174 13.6313 5.6815 12.9749 5.02513C12.3185 4.36875 11.4283 4 10.5 4H7V11Z" fill="#506FA4"/>
    <path fillRule="evenodd" clipRule="evenodd" d="M9.29289 11.2929C9.68342 10.9024 10.3166 10.9024 10.7071 11.2929L19.7071 20.2929C20.0976 20.6834 20.0976 21.3166 19.7071 21.7071C19.3166 22.0976 18.6834 22.0976 18.2929 21.7071L9.29289 12.7071C8.90237 12.3166 8.90237 11.6834 9.29289 11.2929Z" fill="#506FA4"/>
    <path fillRule="evenodd" clipRule="evenodd" d="M19.7071 14.2929C20.0976 14.6834 20.0976 15.3166 19.7071 15.7071L13.7071 21.7071C13.3166 22.0976 12.6834 22.0976 12.2929 21.7071C11.9024 21.3166 11.9024 20.6834 12.2929 20.2929L18.2929 14.2929C18.6834 13.9024 19.3166 13.9024 19.7071 14.2929Z" fill="#506FA4"/>
  </g>
  
</symbol><symbol id="search" viewBox="0 0 20 20">
  <path fillRule="evenodd" clipRule="evenodd" d="M14.8571 7.42857C14.8571 3.32588 11.5313 0 7.42857 0C3.32588 0 0 3.32588 0 7.42857C0 11.5313 3.32588 14.8571 7.42857 14.8571C9.26857 14.8571 10.96 14.1829 12.2629 13.0743L12.5714 13.3829V14.2857L18.2857 20L20 18.2857L14.2857 12.5714H13.3829L13.0743 12.2629C14.1829 10.96 14.8571 9.26857 14.8571 7.42857ZM2.28571 7.42857C2.28571 4.57143 4.57143 2.28571 7.42857 2.28571C10.2857 2.28571 12.5714 4.57143 12.5714 7.42857C12.5714 10.2857 10.2857 12.5714 7.42857 12.5714C4.57143 12.5714 2.28571 10.2857 2.28571 7.42857Z" fill="black"/>
</symbol><symbol id="sliders-horizontal" viewBox="0 0 24 24"><line x1="21" x2="14" y1="4" y2="4" fill="none"/><line x1="10" x2="3" y1="4" y2="4" fill="none"/><line x1="21" x2="12" y1="12" y2="12" fill="none"/><line x1="8" x2="3" y1="12" y2="12" fill="none"/><line x1="21" x2="16" y1="20" y2="20" fill="none"/><line x1="12" x2="3" y1="20" y2="20" fill="none"/><line x1="14" x2="14" y1="2" y2="6" fill="none"/><line x1="8" x2="8" y1="10" y2="14" fill="none"/><line x1="16" x2="16" y1="18" y2="22" fill="none"/></symbol><symbol id="three-dots" viewBox="0 0 24 24">
  <g clipPath="url(#clip0_73_12782)">
    <path d="M11 12C11 12.2652 11.1054 12.5196 11.2929 12.7071C11.4804 12.8946 11.7348 13 12 13C12.2652 13 12.5196 12.8946 12.7071 12.7071C12.8946 12.5196 13 12.2652 13 12C13 11.7348 12.8946 11.4804 12.7071 11.2929C12.5196 11.1054 12.2652 11 12 11C11.7348 11 11.4804 11.1054 11.2929 11.2929C11.1054 11.4804 11 11.7348 11 12Z" stroke="#999999" strokeWidth="2" strokeLinecap="round" strokeLinejoin="round"/>
    <path d="M11 19C11 19.2652 11.1054 19.5196 11.2929 19.7071C11.4804 19.8946 11.7348 20 12 20C12.2652 20 12.5196 19.8946 12.7071 19.7071C12.8946 19.5196 13 19.2652 13 19C13 18.7348 12.8946 18.4804 12.7071 18.2929C12.5196 18.1054 12.2652 18 12 18C11.7348 18 11.4804 18.1054 11.2929 18.2929C11.1054 18.4804 11 18.7348 11 19Z" stroke="#999999" strokeWidth="2" strokeLinecap="round" strokeLinejoin="round"/>
    <path d="M11 5C11 5.26522 11.1054 5.51957 11.2929 5.70711C11.4804 5.89464 11.7348 6 12 6C12.2652 6 12.5196 5.89464 12.7071 5.70711C12.8946 5.51957 13 5.26522 13 5C13 4.73478 12.8946 4.48043 12.7071 4.29289C12.5196 4.10536 12.2652 4 12 4C11.7348 4 11.4804 4.10536 11.2929 4.29289C11.1054 4.48043 11 4.73478 11 5Z" stroke="#999999" strokeWidth="2" strokeLinecap="round" strokeLinejoin="round"/>
  </g>
  
</symbol><symbol id="user" viewBox="0 0 24 24">
  <g clipPath="url(#clip0_1885_1015)">
    <path fillRule="evenodd" clipRule="evenodd" d="M9 2C7.67392 2 6.40215 2.52678 5.46447 3.46447C4.52678 4.40215 4 5.67392 4 7C4 8.32608 4.52678 9.59785 5.46447 10.5355C6.40215 11.4732 7.67392 12 9 12C10.3261 12 11.5979 11.4732 12.5355 10.5355C13.4732 9.59785 14 8.32608 14 7C14 5.67392 13.4732 4.40215 12.5355 3.46447C11.5979 2.52678 10.3261 2 9 2ZM6.87868 4.87868C7.44129 4.31607 8.20435 4 9 4C9.79565 4 10.5587 4.31607 11.1213 4.87868C11.6839 5.44129 12 6.20435 12 7C12 7.79565 11.6839 8.55871 11.1213 9.12132C10.5587 9.68393 9.79565 10 9 10C8.20435 10 7.44129 9.68393 6.87868 9.12132C6.31607 8.55871 6 7.79565 6 7C6 6.20435 6.31607 5.44129 6.87868 4.87868ZM4.87868 16.8787C5.44129 16.3161 6.20435 16 7 16H11C11.7956 16 12.5587 16.3161 13.1213 16.8787C13.6839 17.4413 14 18.2043 14 19V21C14 21.5523 14.4477 22 15 22C15.5523 22 16 21.5523 16 21V19C16 17.6739 15.4732 16.4021 14.5355 15.4645C13.5979 14.5268 12.3261 14 11 14H7C5.67392 14 4.40215 14.5268 3.46447 15.4645C2.52678 16.4021 2 17.6739 2 19V21C2 21.5523 2.44772 22 3 22C3.55228 22 4 21.5523 4 21V19C4 18.2043 4.31607 17.4413 4.87868 16.8787ZM15.0312 2.88196C15.1682 2.34694 15.713 2.02426 16.248 2.16125C17.3236 2.43663 18.2768 3.06213 18.9576 3.93914C19.6383 4.81615 20.0078 5.89479 20.0078 7.005C20.0078 8.11521 19.6383 9.19385 18.9576 10.0709C18.2768 10.9479 17.3236 11.5734 16.248 11.8488C15.713 11.9857 15.1682 11.6631 15.0312 11.128C14.8943 10.593 15.2169 10.0482 15.752 9.91125C16.3973 9.74603 16.9692 9.37073 17.3777 8.84452C17.7861 8.31831 18.0078 7.67113 18.0078 7.005C18.0078 6.33887 17.7861 5.69169 17.3777 5.16548C16.9692 4.63928 16.3973 4.26398 15.752 4.09875C15.2169 3.96176 14.8943 3.41699 15.0312 2.88196ZM18.25 14.1818C17.7152 14.0437 17.1698 14.3653 17.0317 14.9C16.8937 15.4348 17.2153 15.9802 17.75 16.1183C18.3911 16.2838 18.9595 16.6568 19.3665 17.1791C19.7729 17.7007 19.9956 18.3419 20 19.0031V21C20 21.5523 20.4477 22 21 22C21.5523 22 22 21.5523 22 21L22 19L22 18.9943C21.9936 17.8907 21.6224 16.8203 20.9441 15.9498C20.2658 15.0793 19.3185 14.4576 18.25 14.1818Z" fill="#506FA4"/>
  </g>
  
</symbol><symbol id="x" viewBox="0 0 24 24"><path stroke="none" d="M0 0h24v24H0z" fill="none"/><path d="M18 6l-12 12"/><path d="M6 6l12 12"/></symbol></symbol><symbol id="three-dots" viewBox="0 0 24 24">
  <g clipPath="url(#clip0_73_12782)">
    <path d="M11 12C11 12.2652 11.1054 12.5196 11.2929 12.7071C11.4804 12.8946 11.7348 13 12 13C12.2652 13 12.5196 12.8946 12.7071 12.7071C12.8946 12.5196 13 12.2652 13 12C13 11.7348 12.8946 11.4804 12.7071 11.2929C12.5196 11.1054 12.2652 11 12 11C11.7348 11 11.4804 11.1054 11.2929 11.2929C11.1054 11.4804 11 11.7348 11 12Z" stroke="#999999" strokeWidth="2" strokeLinecap="round" strokeLinejoin="round"/>
    <path d="M11 19C11 19.2652 11.1054 19.5196 11.2929 19.7071C11.4804 19.8946 11.7348 20 12 20C12.2652 20 12.5196 19.8946 12.7071 19.7071C12.8946 19.5196 13 19.2652 13 19C13 18.7348 12.8946 18.4804 12.7071 18.2929C12.5196 18.1054 12.2652 18 12 18C11.7348 18 11.4804 18.1054 11.2929 18.2929C11.1054 18.4804 11 18.7348 11 19Z" stroke="#999999" strokeWidth="2" strokeLinecap="round" strokeLinejoin="round"/>
    <path d="M11 5C11 5.26522 11.1054 5.51957 11.2929 5.70711C11.4804 5.89464 11.7348 6 12 6C12.2652 6 12.5196 5.89464 12.7071 5.70711C12.8946 5.51957 13 5.26522 13 5C13 4.73478 12.8946 4.48043 12.7071 4.29289C12.5196 4.10536 12.2652 4 12 4C11.7348 4 11.4804 4.10536 11.2929 4.29289C11.1054 4.48043 11 4.73478 11 5Z" stroke="#999999" strokeWidth="2" strokeLinecap="round" strokeLinejoin="round"/>
  </g>
  
</symbol><symbol id="user" viewBox="0 0 24 24">
  <g clipPath="url(#clip0_1885_1015)">
    <path fillRule="evenodd" clipRule="evenodd" d="M9 2C7.67392 2 6.40215 2.52678 5.46447 3.46447C4.52678 4.40215 4 5.67392 4 7C4 8.32608 4.52678 9.59785 5.46447 10.5355C6.40215 11.4732 7.67392 12 9 12C10.3261 12 11.5979 11.4732 12.5355 10.5355C13.4732 9.59785 14 8.32608 14 7C14 5.67392 13.4732 4.40215 12.5355 3.46447C11.5979 2.52678 10.3261 2 9 2ZM6.87868 4.87868C7.44129 4.31607 8.20435 4 9 4C9.79565 4 10.5587 4.31607 11.1213 4.87868C11.6839 5.44129 12 6.20435 12 7C12 7.79565 11.6839 8.55871 11.1213 9.12132C10.5587 9.68393 9.79565 10 9 10C8.20435 10 7.44129 9.68393 6.87868 9.12132C6.31607 8.55871 6 7.79565 6 7C6 6.20435 6.31607 5.44129 6.87868 4.87868ZM4.87868 16.8787C5.44129 16.3161 6.20435 16 7 16H11C11.7956 16 12.5587 16.3161 13.1213 16.8787C13.6839 17.4413 14 18.2043 14 19V21C14 21.5523 14.4477 22 15 22C15.5523 22 16 21.5523 16 21V19C16 17.6739 15.4732 16.4021 14.5355 15.4645C13.5979 14.5268 12.3261 14 11 14H7C5.67392 14 4.40215 14.5268 3.46447 15.4645C2.52678 16.4021 2 17.6739 2 19V21C2 21.5523 2.44772 22 3 22C3.55228 22 4 21.5523 4 21V19C4 18.2043 4.31607 17.4413 4.87868 16.8787ZM15.0312 2.88196C15.1682 2.34694 15.713 2.02426 16.248 2.16125C17.3236 2.43663 18.2768 3.06213 18.9576 3.93914C19.6383 4.81615 20.0078 5.89479 20.0078 7.005C20.0078 8.11521 19.6383 9.19385 18.9576 10.0709C18.2768 10.9479 17.3236 11.5734 16.248 11.8488C15.713 11.9857 15.1682 11.6631 15.0312 11.128C14.8943 10.593 15.2169 10.0482 15.752 9.91125C16.3973 9.74603 16.9692 9.37073 17.3777 8.84452C17.7861 8.31831 18.0078 7.67113 18.0078 7.005C18.0078 6.33887 17.7861 5.69169 17.3777 5.16548C16.9692 4.63928 16.3973 4.26398 15.752 4.09875C15.2169 3.96176 14.8943 3.41699 15.0312 2.88196ZM18.25 14.1818C17.7152 14.0437 17.1698 14.3653 17.0317 14.9C16.8937 15.4348 17.2153 15.9802 17.75 16.1183C18.3911 16.2838 18.9595 16.6568 19.3665 17.1791C19.7729 17.7007 19.9956 18.3419 20 19.0031V21C20 21.5523 20.4477 22 21 22C21.5523 22 22 21.5523 22 21L22 19L22 18.9943C21.9936 17.8907 21.6224 16.8203 20.9441 15.9498C20.2658 15.0793 19.3185 14.4576 18.25 14.1818Z" fill="#506FA4"/>
  </g>
  
</symbol><symbol id="x" viewBox="0 0 24 24"><path stroke="none" d="M0 0h24v24H0z" fill="none"/><path d="M18 6l-12 12"/><path d="M6 6l12 12"/></symbol></symbol><symbol id="three-dots" viewBox="0 0 24 24">
  <g clipPath="url(#clip0_73_12782)">
    <path d="M11 12C11 12.2652 11.1054 12.5196 11.2929 12.7071C11.4804 12.8946 11.7348 13 12 13C12.2652 13 12.5196 12.8946 12.7071 12.7071C12.8946 12.5196 13 12.2652 13 12C13 11.7348 12.8946 11.4804 12.7071 11.2929C12.5196 11.1054 12.2652 11 12 11C11.7348 11 11.4804 11.1054 11.2929 11.2929C11.1054 11.4804 11 11.7348 11 12Z" stroke="#999999" strokeWidth="2" strokeLinecap="round" strokeLinejoin="round"/>
    <path d="M11 19C11 19.2652 11.1054 19.5196 11.2929 19.7071C11.4804 19.8946 11.7348 20 12 20C12.2652 20 12.5196 19.8946 12.7071 19.7071C12.8946 19.5196 13 19.2652 13 19C13 18.7348 12.8946 18.4804 12.7071 18.2929C12.5196 18.1054 12.2652 18 12 18C11.7348 18 11.4804 18.1054 11.2929 18.2929C11.1054 18.4804 11 18.7348 11 19Z" stroke="#999999" strokeWidth="2" strokeLinecap="round" strokeLinejoin="round"/>
    <path d="M11 5C11 5.26522 11.1054 5.51957 11.2929 5.70711C11.4804 5.89464 11.7348 6 12 6C12.2652 6 12.5196 5.89464 12.7071 5.70711C12.8946 5.51957 13 5.26522 13 5C13 4.73478 12.8946 4.48043 12.7071 4.29289C12.5196 4.10536 12.2652 4 12 4C11.7348 4 11.4804 4.10536 11.2929 4.29289C11.1054 4.48043 11 4.73478 11 5Z" stroke="#999999" strokeWidth="2" strokeLinecap="round" strokeLinejoin="round"/>
  </g>
  
</symbol><symbol id="user" viewBox="0 0 24 24">
  <g clipPath="url(#clip0_1885_1015)">
    <path fillRule="evenodd" clipRule="evenodd" d="M9 2C7.67392 2 6.40215 2.52678 5.46447 3.46447C4.52678 4.40215 4 5.67392 4 7C4 8.32608 4.52678 9.59785 5.46447 10.5355C6.40215 11.4732 7.67392 12 9 12C10.3261 12 11.5979 11.4732 12.5355 10.5355C13.4732 9.59785 14 8.32608 14 7C14 5.67392 13.4732 4.40215 12.5355 3.46447C11.5979 2.52678 10.3261 2 9 2ZM6.87868 4.87868C7.44129 4.31607 8.20435 4 9 4C9.79565 4 10.5587 4.31607 11.1213 4.87868C11.6839 5.44129 12 6.20435 12 7C12 7.79565 11.6839 8.55871 11.1213 9.12132C10.5587 9.68393 9.79565 10 9 10C8.20435 10 7.44129 9.68393 6.87868 9.12132C6.31607 8.55871 6 7.79565 6 7C6 6.20435 6.31607 5.44129 6.87868 4.87868ZM4.87868 16.8787C5.44129 16.3161 6.20435 16 7 16H11C11.7956 16 12.5587 16.3161 13.1213 16.8787C13.6839 17.4413 14 18.2043 14 19V21C14 21.5523 14.4477 22 15 22C15.5523 22 16 21.5523 16 21V19C16 17.6739 15.4732 16.4021 14.5355 15.4645C13.5979 14.5268 12.3261 14 11 14H7C5.67392 14 4.40215 14.5268 3.46447 15.4645C2.52678 16.4021 2 17.6739 2 19V21C2 21.5523 2.44772 22 3 22C3.55228 22 4 21.5523 4 21V19C4 18.2043 4.31607 17.4413 4.87868 16.8787ZM15.0312 2.88196C15.1682 2.34694 15.713 2.02426 16.248 2.16125C17.3236 2.43663 18.2768 3.06213 18.9576 3.93914C19.6383 4.81615 20.0078 5.89479 20.0078 7.005C20.0078 8.11521 19.6383 9.19385 18.9576 10.0709C18.2768 10.9479 17.3236 11.5734 16.248 11.8488C15.713 11.9857 15.1682 11.6631 15.0312 11.128C14.8943 10.593 15.2169 10.0482 15.752 9.91125C16.3973 9.74603 16.9692 9.37073 17.3777 8.84452C17.7861 8.31831 18.0078 7.67113 18.0078 7.005C18.0078 6.33887 17.7861 5.69169 17.3777 5.16548C16.9692 4.63928 16.3973 4.26398 15.752 4.09875C15.2169 3.96176 14.8943 3.41699 15.0312 2.88196ZM18.25 14.1818C17.7152 14.0437 17.1698 14.3653 17.0317 14.9C16.8937 15.4348 17.2153 15.9802 17.75 16.1183C18.3911 16.2838 18.9595 16.6568 19.3665 17.1791C19.7729 17.7007 19.9956 18.3419 20 19.0031V21C20 21.5523 20.4477 22 21 22C21.5523 22 22 21.5523 22 21L22 19L22 18.9943C21.9936 17.8907 21.6224 16.8203 20.9441 15.9498C20.2658 15.0793 19.3185 14.4576 18.25 14.1818Z" fill="#506FA4"/>
  </g>
  
</symbol><symbol id="x" viewBox="0 0 24 24"><path stroke="none" d="M0 0h24v24H0z" fill="none"/><path d="M18 6l-12 12"/><path d="M6 6l12 12"/></symbol></svg>