<svg width="24" height="24" viewBox="0 0 24 24" fill="none" xmlns="http://www.w3.org/2000/svg">
  <g clipPath="url(#clip0_1885_1015)">
    <path
      fillRule="evenodd"
      clipRule="evenodd"
      d="M9 2C7.67392 2 6.40215 2.52678 5.46447 3.46447C4.52678 4.40215 4 5.67392 4 7C4 8.32608 4.52678 9.59785 5.46447 10.5355C6.40215 11.4732 7.67392 12 9 12C10.3261 12 11.5979 11.4732 12.5355 10.5355C13.4732 9.59785 14 8.32608 14 7C14 5.67392 13.4732 4.40215 12.5355 3.46447C11.5979 2.52678 10.3261 2 9 2ZM6.87868 4.87868C7.44129 4.31607 8.20435 4 9 4C9.79565 4 10.5587 4.31607 11.1213 4.87868C11.6839 5.44129 12 6.20435 12 7C12 7.79565 11.6839 8.55871 11.1213 9.12132C10.5587 9.68393 9.79565 10 9 10C8.20435 10 7.44129 9.68393 6.87868 9.12132C6.31607 8.55871 6 7.79565 6 7C6 6.20435 6.31607 5.44129 6.87868 4.87868ZM4.87868 16.8787C5.44129 16.3161 6.20435 16 7 16H11C11.7956 16 12.5587 16.3161 13.1213 16.8787C13.6839 17.4413 14 18.2043 14 19V21C14 21.5523 14.4477 22 15 22C15.5523 22 16 21.5523 16 21V19C16 17.6739 15.4732 16.4021 14.5355 15.4645C13.5979 14.5268 12.3261 14 11 14H7C5.67392 14 4.40215 14.5268 3.46447 15.4645C2.52678 16.4021 2 17.6739 2 19V21C2 21.5523 2.44772 22 3 22C3.55228 22 4 21.5523 4 21V19C4 18.2043 4.31607 17.4413 4.87868 16.8787ZM15.0312 2.88196C15.1682 2.34694 15.713 2.02426 16.248 2.16125C17.3236 2.43663 18.2768 3.06213 18.9576 3.93914C19.6383 4.81615 20.0078 5.89479 20.0078 7.005C20.0078 8.11521 19.6383 9.19385 18.9576 10.0709C18.2768 10.9479 17.3236 11.5734 16.248 11.8488C15.713 11.9857 15.1682 11.6631 15.0312 11.128C14.8943 10.593 15.2169 10.0482 15.752 9.91125C16.3973 9.74603 16.9692 9.37073 17.3777 8.84452C17.7861 8.31831 18.0078 7.67113 18.0078 7.005C18.0078 6.33887 17.7861 5.69169 17.3777 5.16548C16.9692 4.63928 16.3973 4.26398 15.752 4.09875C15.2169 3.96176 14.8943 3.41699 15.0312 2.88196ZM18.25 14.1818C17.7152 14.0437 17.1698 14.3653 17.0317 14.9C16.8937 15.4348 17.2153 15.9802 17.75 16.1183C18.3911 16.2838 18.9595 16.6568 19.3665 17.1791C19.7729 17.7007 19.9956 18.3419 20 19.0031V21C20 21.5523 20.4477 22 21 22C21.5523 22 22 21.5523 22 21L22 19L22 18.9943C21.9936 17.8907 21.6224 16.8203 20.9441 15.9498C20.2658 15.0793 19.3185 14.4576 18.25 14.1818Z"
      fill="#506FA4"
    />
  </g>
  <defs>
    <clipPath id="clip0_1885_1015">
      <rect width="24" height="24" fill="white" />
    </clipPath>
  </defs>
</svg>
